<?xml version="1.0" encoding="UTF-8" standalone="no"?>
<svg
   xmlns:dc="http://purl.org/dc/elements/1.1/"
   xmlns:cc="http://creativecommons.org/ns#"
   xmlns:rdf="http://www.w3.org/1999/02/22-rdf-syntax-ns#"
   xmlns:svg="http://www.w3.org/2000/svg"
   xmlns="http://www.w3.org/2000/svg"
   width="60"
   height="60"
   viewBox="0 0 15.875 15.875"
   version="1.1"
   id="svg8">
  <defs
     id="defs2" />
  <metadata
     id="metadata5">
    <rdf:RDF>
      <cc:Work
         rdf:about="">
        <dc:format>image/svg+xml</dc:format>
        <dc:type
           rdf:resource="http://purl.org/dc/dcmitype/StillImage" />
        <dc:title></dc:title>
      </cc:Work>
    </rdf:RDF>
  </metadata>
  <g
     id="layer1"
     transform="matrix(1.091374,0,0,1.091374,-73.504487,-92.775228)">
    <path
       id="rect1114"
       style="fill:#0e0e0e;fill-opacity:1;stroke-width:0.755906;stroke-linecap:square"
       d="m 254.55273,321.28906 v 27.46289 c 1.22692,-1.51478 2.8803,-2.71886 4.96875,-3.60547 2.29245,-0.99483 4.86597,-1.49218 7.72071,-1.49218 4.32536,0 7.75287,1.09303 10.2832,3.27734 0.8029,0.68042 1.46533,1.45849 2.01563,2.31445 v -19.66992 h 9.375 v 18.55469 c 2.48708,-2.98449 5.61193,-4.47656 9.375,-4.47656 6.41353,0 10.15155,3.1515 11.23828,9.42968 v -31.79492 z m 12.20313,29.30664 c -1.57875,0 -2.82214,0.37977 -3.73047,1.13672 -0.88669,0.75691 -1.33008,1.79403 -1.33008,3.11328 h -7.14258 v 7.06641 c 0.34309,-0.32822 0.7055,-0.64439 1.10743,-0.93555 2.76823,-1.98966 6.75864,-2.99399 11.9707,-3.01562 h 4.31445 v -2.01172 c 0,-1.622 -0.42022,-2.91934 -1.26367,-3.89258 -0.82182,-0.97319 -2.13075,-1.46094 -3.92578,-1.46094 z m 28.12891,0.68164 c -2.74661,0 -4.73603,1.06025 -5.96875,3.17969 v 21.80859 h 11.58007 v -19.08398 c 0,-2.0113 -0.4318,-3.49176 -1.29687,-4.44336 -0.86507,-0.97319 -2.30316,-1.46094 -4.31445,-1.46094 z m -26.44141,12.16602 c -4.69302,0 -7.19137,1.62123 -7.49414,4.86523 l -0.0332,0.55274 c 0,1.16784 0.4106,2.12977 1.23242,2.88672 0.82182,0.75695 1.94762,1.13476 3.375,1.13476 1.38411,0 2.66027,-0.30262 3.82812,-0.9082 1.16785,-0.62717 2.03145,-1.45999 2.59375,-2.49805 v -6.0332 z m 3.89258,12.8125 c -0.003,0.003 -0.007,0.006 -0.01,0.01 h 0.0117 c -5.3e-4,-0.003 -0.001,-0.006 -0.002,-0.01 z"
       transform="scale(0.26458333)" />
  </g>
</svg>
